Coordinates
version=1
nRows=16
nColumns=38
inDegrees=no

Units are S.I. units (second, meters, Newtons, ...)
If the header above contains a line with 'inDegrees', this indicates whether rotational values are in degrees (yes) or radians (no).

endheader
time	pelvis_tilt	pelvis_list	pelvis_rotation	pelvis_tx	pelvis_ty	pelvis_tz	hip_flexion_r	hip_adduction_r	hip_rotation_r	knee_angle_r	ankle_angle_r	subtalar_angle_r	mtp_angle_r	hip_flexion_l	hip_adduction_l	hip_rotation_l	knee_angle_l	ankle_angle_l	subtalar_angle_l	mtp_angle_l	lumbar_extension	lumbar_bending	lumbar_rotation	arm_flex_r	arm_add_r	arm_rot_r	elbow_flex_r	pro_sup_r	wrist_flex_r	wrist_dev_r	arm_flex_l	arm_add_l	arm_rot_l	elbow_flex_l	pro_sup_l	wrist_flex_l	wrist_dev_l
2.6775	-0.0102119	0.0277853	-3.00332	-0.208377	0.990328	0.000989633	0.436472	0.0080308	-0.180087	0.308219	0.2187	0	0	-0.176281	-0.0117889	0.0599323	0.51236	-0.180393	0	0	-0.260202	-0.00800139	0.0128596	-0.729361	-0.440609	0.0913953	1.73403	1.34917	0	0	0.889567	-0.254658	0.966119	1.94302	1.35668	0	0
2.6875	-0.00209067	0.0250709	-3.00734	-0.210304	0.989669	0.000678013	0.438407	0.0113466	-0.172076	0.279727	0.221929	0	0	-0.171272	-0.010956	0.0550103	0.533514	-0.221226	0	0	-0.24773	-0.00958552	0.0114427	-0.729667	-0.440053	0.0866854	1.73814	1.34907	0	0	0.878453	-0.256655	0.964018	1.95643	1.36575	0	0
2.69749	0.00374976	0.0228093	-3.01183	-0.212066	0.988168	0.000323746	0.440016	0.0146826	-0.165128	0.262952	0.222689	0	0	-0.164969	-0.0110445	0.0488212	0.560981	-0.257138	0	0	-0.238099	-0.0102555	0.0119134	-0.726428	-0.44073	0.0823782	1.74345	1.34943	0	0	0.866131	-0.259126	0.9626	1.96711	1.37503	0	0
2.70748	0.00689645	0.0212989	-3.0169	-0.213623	0.985863	-7.18172e-05	0.440953	0.0183931	-0.159293	0.257752	0.220529	0	0	-0.157929	-0.0124319	0.0412541	0.594346	-0.287897	0	0	-0.231845	-0.00969497	0.0147027	-0.719858	-0.442668	0.078134	1.75012	1.35002	0	0	0.852973	-0.261768	0.962024	1.97449	1.38401	0	0
2.71747	0.00696714	0.0207916	-3.02264	-0.214939	0.982815	-0.000503795	0.440796	0.0227812	-0.154548	0.263576	0.2152	0	0	-0.15073	-0.0154072	0.032292	0.63306	-0.313287	0	0	-0.229477	-0.00766531	0.0202266	-0.7102	-0.445866	0.0736114	1.75824	1.35059	0	0	0.839355	-0.264261	0.962475	1.978	1.39207	0	0
2.72746	0.00365766	0.0214744	-3.02912	-0.215975	0.979102	-0.000962401	0.439133	0.028055	-0.150857	0.279572	0.206812	0	0	-0.143896	-0.0201424	0.0220478	0.676499	-0.333021	0	0	-0.231418	-0.00402459	0.0288393	-0.697696	-0.450309	0.0684889	1.76789	1.35087	0	0	0.825634	-0.266285	0.964143	1.97715	1.39861	0	0
2.73745	-0.00320982	0.0234539	-3.03635	-0.216694	0.974822	-0.00143218	0.435639	0.0342953	-0.148184	0.304692	0.195994	0	0	-0.137811	-0.026671	0.0107775	0.724008	-0.346695	0	0	-0.237952	0.00125846	0.0407879	-0.682576	-0.455967	0.0624923	1.77909	1.35062	0	0	0.812117	-0.267555	0.9672	1.9715	1.40306	0	0
2.74744	-0.013653	0.0267489	-3.04428	-0.217064	0.970084	-0.00189274	0.430111	0.0414534	-0.146451	0.337781	0.183971	0	0	-0.132662	-0.0348863	-0.00114431	0.77493	-0.353832	0	0	-0.249181	0.00810085	0.0561841	-0.665028	-0.462806	0.0554197	1.79181	1.34965	0	0	0.799027	-0.267844	0.971771	1.96075	1.40498	0	0
2.75743	-0.0275061	0.031293	-3.05281	-0.217055	0.965007	-0.00232074	0.422483	0.0493778	-0.145487	0.377641	0.172454	0	0	-0.128403	-0.0445574	-0.0132705	0.82859	-0.354044	0	0	-0.264991	0.0163152	0.0749915	-0.645193	-0.470792	0.0471647	1.80598	1.34779	0	0	0.786484	-0.267004	0.977922	1.94473	1.40412	0	0
2.76742	-0.0444077	0.0369367	-3.0618	-0.216646	0.959716	-0.00269286	0.412792	0.0578452	-0.145033	0.423011	0.163393	0	0	-0.124748	-0.0553477	-0.0251305	0.884272	-0.347242	0	0	-0.285036	0.0256192	0.0970236	-0.623152	-0.479883	0.0377319	1.82148	1.34502	0	0	0.77449	-0.264989	0.985647	1.92345	1.40041	0	0
2.77741	-0.0637992	0.0434514	-3.07108	-0.21583	0.954338	-0.00298896	0.401126	0.0665915	-0.144781	0.472478	0.158658	0	0	-0.121191	-0.0668388	-0.0362785	0.941195	-0.333767	0	0	-0.308724	0.0356485	0.121953	-0.598947	-0.490018	0.0272448	1.83814	1.34138	0	0	0.762923	-0.261868	0.99487	1.89713	1.39394	0	0
2.7874	-0.0849295	0.0505396	-3.08046	-0.214617	0.948994	-0.00319523	0.38761	0.0753244	-0.144463	0.524407	0.159654	0	0	-0.117032	-0.0785649	-0.046336	0.998511	-0.314374	0	0	-0.335208	0.0459728	0.149315	-0.572581	-0.501112	0.0159523	1.85577	1.33702	0	0	0.751541	-0.257837	1.00545	1.86619	1.38496	0	0
2.79739	-0.106867	0.0578467	-3.08973	-0.21304	0.943792	-0.00330768	0.372431	0.0837157	-0.143944	0.576968	0.167022	0	0	-0.1114	-0.0900508	-0.055007	1.05533	-0.290095	0	0	-0.363387	0.0561109	0.178497	-0.544022	-0.513034	0.00424266	1.87413	1.33215	0	0	0.739988	-0.253244	1.01717	1.8313	1.37379	0	0
2.80738	-0.128544	0.0649869	-3.09865	-0.211152	0.938827	-0.00333539	0.355889	0.0914097	-0.143245	0.628307	0.180609	0	0	-0.103317	-0.100859	-0.0620622	1.11073	-0.262086	0	0	-0.391939	0.0655621	0.208726	-0.513197	-0.525605	-0.00734735	1.89296	1.32702	0	0	0.727828	-0.248598	1.02978	1.79333	1.36086	0	0
2.81737	-0.148879	0.0715932	-3.10696	-0.209028	0.934176	-0.00330036	0.338373	0.0980919	-0.142452	0.676726	0.199684	0	0	-0.0918292	-0.110648	-0.0673236	1.16383	-0.231488	0	0	-0.419449	0.0738719	0.239115	-0.480016	-0.538601	-0.0181683	1.91203	1.32188	0	0	0.714598	-0.244539	1.04293	1.75336	1.34663	0	0
2.82736	-0.166951	0.0773694	-3.11438	-0.206751	0.929909	-0.00323226	0.320245	0.10357	-0.141615	0.720823	0.223196	0	0	-0.076223	-0.119212	-0.0707009	1.2137	-0.199332	0	0	-0.444629	0.0807017	0.268801	-0.444436	-0.551775	-0.0275731	1.93114	1.31697	0	0	0.699894	-0.241754	1.05624	1.71258	1.33162	0	0
